<svg width="640" height="480" xmlns="http://www.w3.org/2000/svg">
 <title>Audiogram Hearing NO Response - no border</title>
 <metadata id="metadata12390">image/svg+xmlOther map symbolsMohamed IbrahimPublic Domainclker.comother map symbols</metadata>
 <g>
  <path fill="#00bfbf" fill-rule="nonzero" stroke="#00bfbf" id="path3290" d="m319.890869,80.242172l10.539185,0c59.113708,0.117767 93.027527,56.405273 93.263,94.49942c-0.235474,7.41864 -2.06073,13.836365 -10.421448,13.659729c-17.72229,0.176636 -11.422363,-28.379272 -26.024109,-52.578186c-6.888733,-11.952271 -29.085815,-33.560547 -54.403412,-33.383911l-9.302765,0c-13.541962,-0.176636 -39.095062,7.654175 -56.228638,33.383911c-21.372742,31.087646 -7.359741,53.873505 -25.317566,53.755737c-2.708405,0.117767 -10.656952,-0.706512 -10.539185,-13.541962c0.765381,-58.466003 54.403381,-95.676971 88.434937,-95.794739"/>
  <path fill="#00bfbf" fill-rule="nonzero" stroke="#00bfbf" id="path3292" d="m327.898315,400.542114c22.197083,0.235474 39.330627,-22.255981 39.566101,-37.740906l0,-32.147461c-0.235474,-65.825806 68.887451,-91.732178 68.651917,-157.616837c0.235535,-61.704285 -55.522095,-108.335777 -108.218018,-108.218033c-43.687561,-0.117744 -73.47995,28.025986 -84.725647,42.627792c-33.796051,41.803467 -14.366272,81.663971 -38.270813,81.663971c-6.829834,0 -13.483063,-3.827087 -13.60083,-17.369049c-1.059814,-65.354736 52.931458,-134.654312 137.892609,-134.772079c68.534149,0.117767 135.890778,54.756699 135.890778,138.540298c0,77.601395 -67.945374,93.792862 -67.945374,161.97377l0,29.085815c0,29.910095 -26.671814,64.118286 -70.477142,64.294922c-1.589752,-0.471008 -3.473816,-1.059814 -5.534576,-1.295288c-8.066284,-2.414001 -13.659698,-10.833618 -11.716766,-19.135437c2.296265,-7.183105 8.949493,-8.949463 17.957855,-9.891479l0.529907,0z"/>
  <path fill="#00bfbf" fill-rule="nonzero" stroke="#00bfbf" id="path3298" d="m206.003082,286.57608c0.117767,-7.771881 6.241058,-13.954132 13.895233,-13.895203c7.477539,-0.058929 13.60083,6.123322 13.954102,13.895203c-0.353271,7.242065 -6.476563,13.424225 -13.954102,13.129822c-7.654175,0.294403 -13.777466,-5.887756 -13.895233,-13.129822"/>
  <path stroke-width="0" transform="rotate(39.437374114990234 318.0296936035157,276.69622802734375) " fill="#00bfbf" fill-rule="evenodd" stroke="#00bfbf" id="path3306" d="m257.887695,229.737686l4.108246,-16.737686c54.828979,15.453583 98.75528,61.858612 116.175751,121.813202l-15.366333,5.579254c-15.721832,-54.109711 -55.460999,-96.352448 -104.917664,-110.65477"/>
  <title>Layer 1</title>
  <path stroke-width="0" id="svg_1" transform="rotate(41.464134216308594 291.52972412109375,279.19622802734375) " fill="#00bfbf" fill-rule="evenodd" stroke="#00bfbf" d="m245.79248,246.889832l3.124268,-11.515152c41.696747,10.631714 75.102173,42.557297 88.35022,83.804703l-11.685913,3.838409c-11.956268,-37.226257 -42.177399,-66.2883 -79.788574,-76.12796"/>
  <path stroke-width="3" id="svg_2" transform="rotate(42.143253326416016 266.52969360351545,280.1962280273438) " fill="#00bfbf" fill-rule="evenodd" stroke="#00bfbf" d="m232.998993,257.670258l2.290436,-8.029053c30.568573,7.413086 55.058624,29.673492 64.770966,58.433685l-8.567108,2.676392c-8.76535,-25.956421 -30.920929,-46.220215 -58.494293,-53.081024"/>
  <path stroke-width="5" id="svg_3" transform="rotate(37.61712646484375 245.07366943359364,283.24069213867193) " fill="#00bfbf" fill-rule="evenodd" stroke="#00bfbf" d="m224.050659,267.108276l1.436096,-5.750244c19.165741,5.309082 34.520447,21.251312 40.609894,41.848633l-5.371399,1.916687c-5.495636,-18.589233 -19.386749,-33.101593 -36.674591,-38.015076"/>
  <ellipse fill-opacity="0" ry="215.500002" rx="195.999999" id="svg_6" cy="233.500002" cx="327.000001" stroke-linecap="null" stroke-linejoin="null" stroke-dasharray="null" stroke-width="15" stroke="#00bfbf" fill="#00bfbf"/>
  <rect transform="rotate(-38.6171760559082 318.8884887695314,225.8604125976563) " id="svg_7" height="10" width="389.439013" y="220.860413" x="124.168983" fill-opacity="0" stroke-linecap="null" stroke-linejoin="null" stroke-dasharray="null" stroke-width="12" stroke="#00bfbf" fill="#00bfbf"/>
 </g>
</svg>