<?xml version="1.0"?>
<svg width="402" height="450" xmlns="http://www.w3.org/2000/svg">
 <title>Audiogram Hearing NO Response - no border</title>

 <metadata id="metadata12390">image/svg+xmlOther map symbolsMohamed IbrahimPublic Domainclker.comother map symbols</metadata>
 <g>
  <title>background</title>
  <rect fill="none" id="canvas_background" height="404" width="404" y="-1" x="-1"/>
 </g>
 <g>
  <path fill="#000000" fill-rule="nonzero" stroke="#000000" id="path3290" d="m241.890869,41.242172l10.539185,0c59.113708,0.117767 93.027527,56.405273 93.263,94.49942c-0.235474,7.41864 -2.06073,13.836365 -10.421448,13.659729c-17.72229,0.176636 -11.422363,-28.379272 -26.024109,-52.578186c-6.888733,-11.952278 -29.085815,-33.560547 -54.403412,-33.383919l-9.302765,0c-13.541962,-0.176628 -39.095062,7.654182 -56.228638,33.383919c-21.372742,31.087646 -7.359741,53.873505 -25.317566,53.755737c-2.708405,0.117767 -10.656952,-0.706512 -10.539185,-13.541962c0.765381,-58.466003 54.403381,-95.676971 88.434937,-95.794739"/>
  <path d="m250.897995,369.541992c22.197006,0.236023 39.331009,-22.255981 39.565994,-37.740997l0,-32.147003c-0.234985,-65.825989 68.888,-91.731995 68.652008,-157.616989c0.235992,-61.704399 -55.522003,-108.335903 -108.218002,-108.218102c-43.686996,-0.117802 -73.479996,28.026001 -84.724991,42.6278c-33.796005,41.803299 -14.367004,81.664291 -38.271004,81.664291c-6.830002,0 -13.483002,-3.826996 -13.600998,-17.368988c-1.060005,-65.355103 52.930992,-134.654704 137.892998,-134.772505c68.533997,0.117801 135.890015,54.756697 135.890015,138.540495c0,77.600998 -67.945007,93.792999 -67.945007,161.974014l0,29.084991c0,29.910004 -26.671997,64.118988 -70.477005,64.295013c-1.589996,-0.471008 -3.473999,-1.059021 -5.535004,-1.295013c-8.065994,-2.414001 -13.658997,-10.834015 -11.716003,-19.13501c2.296005,-7.18399 8.949005,-8.949982 17.957001,-9.891998l0.529999,0z" fill="#000000" fill-rule="nonzero" stroke="#000000" id="path3292"/>
  <path fill="#000000" fill-rule="nonzero" stroke="#000000" id="path3298" d="m10.003082,260.57608c0.117767,-7.771881 6.241058,-13.954132 13.895233,-13.895203c7.477539,-0.058929 13.60083,6.123322 13.954102,13.895203c-0.353271,7.242065 -6.476563,13.424225 -13.954102,13.129822c-7.654175,0.294403 -13.777466,-5.887756 -13.895233,-13.129822"/>
  <path stroke="#000000" stroke-width="0" transform="rotate(39.437374114990234 153.02969360351568,264.69622802734375) " fill="#000000" fill-rule="evenodd" id="path3306" d="m92.887695,217.737686l4.108246,-16.737686c54.828979,15.453583 98.75528,61.858612 116.175751,121.813202l-15.366333,5.579254c-15.721832,-54.109711 -55.460999,-96.352448 -104.917664,-110.65477"/>
  <title>Layer 1</title>
  <path stroke-width="0" id="svg_1" transform="rotate(41.464134216308594 118.52972412109376,262.19622802734375) " fill="#000000" fill-rule="evenodd" stroke="#000000" d="m72.79248,229.889832l3.124268,-11.515152c41.696747,10.631714 75.102173,42.557297 88.35022,83.804703l-11.685913,3.838409c-11.956268,-37.226257 -42.177399,-66.2883 -79.788574,-76.12796"/>
  <path stroke-width="3" id="svg_2" transform="rotate(42.143253326416016 83.5296936035156,260.1962585449219) " fill="#000000" fill-rule="evenodd" stroke="#000000" d="m49.998993,237.670258l2.290436,-8.029053c30.568573,7.413086 55.058624,29.673492 64.770966,58.433685l-8.567108,2.676392c-8.76535,-25.956421 -30.920929,-46.220215 -58.494293,-53.081024"/>
  <path stroke-width="5" id="svg_3" transform="rotate(37.61712646484375 52.073654174804744,260.2406921386719) " fill="#000000" fill-rule="evenodd" stroke="#000000" d="m31.050659,244.108276l1.436096,-5.750244c19.165741,5.309082 34.520447,21.251312 40.609894,41.848633l-5.371399,1.916687c-5.495636,-18.589233 -19.386749,-33.101593 -36.674591,-38.015076"/>
  <path stroke="#000000" stroke-width="0" transform="rotate(39.437374114990234 192.02969360351557,264.1961975097656) " fill="#000000" fill-rule="evenodd" id="svg_4" d="m111.242592,198.733017l5.518494,-23.333405c73.650276,21.543289 132.655296,86.234848 156.055717,169.815353l-20.641159,7.777832c-21.118713,-75.432373 -74.499252,-134.321442 -140.933052,-154.259781"/>
 </g>
</svg>