<svg width="400" height="400" xmlns="http://www.w3.org/2000/svg">
 <title>Audiogram Hearing Response - no border</title>
 <defs>
  <marker id="se_marker_end_path3306" markerUnits="strokeWidth" orient="auto" viewBox="0 0 100 100" markerWidth="5" markerHeight="5" refX="50" refY="50">
   <path d="m30,0l40,100" fill="#007f7f" stroke="#007f7f" stroke-width="10"/>
  </marker>
  <marker id="se_marker_mid_path3306" markerUnits="strokeWidth" orient="auto" viewBox="0 0 100 100" markerWidth="5" markerHeight="5" refX="50" refY="50">
   <path d="m50,0l0,100" fill="#007f7f" stroke="#007f7f" stroke-width="10"/>
  </marker>
  <marker id="se_marker_start_path3306" markerUnits="strokeWidth" orient="auto" viewBox="0 0 100 100" markerWidth="5" markerHeight="5" refX="50" refY="50">
   <path d="m50,0l0,100" fill="#007f7f" stroke="#007f7f" stroke-width="10"/>
  </marker>
 </defs>
 <metadata id="metadata12390">image/svg+xmlOther map symbolsMohamed IbrahimPublic Domainclker.comother map symbols</metadata>
 <g>
  <path fill="#00bfbf" fill-rule="nonzero" stroke="#00bfbf" id="path3290" d="m249.89087,43.24217l10.53918,0c59.11371,0.11777 93.02753,56.40528 93.263,94.49942c-0.23547,7.41864 -2.06073,13.83636 -10.42145,13.65974c-17.72229,0.17662 -11.42236,-28.3793 -26.02411,-52.57819c-6.88873,-11.9523 -29.08582,-33.56056 -54.40341,-33.38394l-9.30276,0c-13.54196,-0.17663 -39.09506,7.65418 -56.22864,33.38394c-21.37274,31.08765 -7.35974,53.87348 -25.31757,53.75571c-2.7084,0.11777 -10.65695,-0.70651 -10.53918,-13.54196c0.76538,-58.466 54.40338,-95.67696 88.43492,-95.79473"/>
  <path fill="#00bfbf" fill-rule="nonzero" stroke="#00bfbf" id="path3292" d="m258.89801,366.54199c22.19699,0.23602 39.33099,-22.25598 39.56598,-37.741l0,-32.147c-0.23499,-65.82599 68.888,-91.73199 68.65201,-157.61699c0.23599,-61.7044 -55.522,-108.3359 -108.21799,-108.2181c-43.68701,-0.1178 -73.48001,28.026 -84.72501,42.6278c-33.7964,41.8033 -14.367,81.66429 -38.2711,81.66429c-6.8299,0 -13.4831,-3.82799 -13.6009,-17.36899c-1.0598,-65.3552 52.93099,-134.65475 137.893,-134.77249c68.534,0.11777 135.89001,54.75669 135.89001,138.54048c0,77.601 -67.94501,93.793 -67.94501,161.97401l0,29.08499c0,29.91 -26.672,64.11899 -70.47702,64.29501c-1.58997,-0.47101 -3.47398,-1.05902 -5.53499,-1.29501c-8.06599,-2.414 -13.659,-10.83401 -11.716,-19.13501c2.29602,-7.18399 8.94902,-8.94998 17.95699,-9.892l0.53003,0l0,0z"/>
  <path fill="#00bfbf" fill-rule="nonzero" stroke="#007f7f" id="path3298" d="m21.00308,274.57608c0.11777,-7.77188 6.24106,-13.95413 13.89523,-13.8952c7.47755,-0.05893 13.60085,6.12332 13.9541,13.8952c-0.35326,7.24207 -6.47655,13.42422 -13.9541,13.12982c-7.65417,0.2944 -13.77747,-5.88776 -13.89523,-13.12982" stroke-width="0"/>
  <path transform="rotate(41.181427001953125 180.02969360351562,273.1211242675781) " fill="#00bfbf" fill-rule="evenodd" stroke="#007f7f" id="path3306" d="m105.91255,213.63634l5.06287,-21.20248c67.56953,19.57585 121.70299,78.35948 143.17142,154.30702l-18.937,7.0675c-19.37509,-68.54352 -68.34843,-122.0546 -129.29729,-140.17209" stroke-width="0" marker-end="url(#se_marker_end_path3306)" marker-mid="url(#se_marker_mid_path3306)" marker-start="url(#se_marker_start_path3306)"/>
  <title>Layer 1</title>
  <path id="svg_1" transform="rotate(45 134.52972412109378,276.19622802734375) " fill="#00bfbf" fill-rule="evenodd" stroke="#007f7f" d="m88.79248,243.88983l3.12427,-11.51515c41.69676,10.63171 75.10217,42.5573 88.35022,83.8047l-11.68591,3.83841c-11.95627,-37.22626 -42.17739,-66.2883 -79.78857,-76.12796" stroke-width="0"/>
  <path id="svg_2" transform="rotate(49.39208984375 94.52970123291013,277.69622802734375) " fill="#00bfbf" fill-rule="evenodd" stroke="#007f7f" d="m62.76676,256.47351l2.16968,-7.56454c28.95697,6.98422 52.15589,27.95673 61.3562,55.05301l-8.11546,2.52155c-8.30324,-24.45471 -29.29076,-43.54608 -55.41042,-50.01001" stroke-width="0"/>
  <path id="svg_3" transform="rotate(43.34162902832031 63.07365417480471,275.2406921386719) " fill="#00bfbf" fill-rule="evenodd" stroke="#007f7f" d="m43.46487,260.15088l1.3395,-5.37862c17.87646,4.96596 32.19826,19.87788 37.87807,39.14406l-5.01006,1.79282c-5.12595,-17.38785 -18.08261,-30.96231 -34.2075,-35.55826" stroke-width="0"/>
  <path fill="none" stroke="#007f7f" stroke-width="0" stroke-dasharray="null" stroke-linejoin="null" stroke-linecap="null" id="svg_4" d="m62.5,65c0,2 0,9 0,16c0,4 2,11 3,19l1,5l1,3l0,1"/>
  <path fill="none" stroke="#007f7f" stroke-width="0" stroke-dasharray="null" stroke-linejoin="null" stroke-linecap="null" id="svg_5" d="m54.5,56c0,1 0,4 0,13c0,10 1.28472,15.92484 3,23c1.20139,4.95547 1.48626,8.82375 2,11c0.22975,0.97325 0,2 0,3c0,5 0,6 0,7c0,2 0,3 0,6l1,2l0,2"/>
  <path fill="none" stroke="#007f7f" stroke-width="0" stroke-dasharray="null" stroke-linejoin="null" stroke-linecap="null" id="svg_6" d="m66.5,76c0,2 -0.49874,4.94672 -1,12c-0.42533,5.98491 -1.49903,14.95332 -2,23c-0.68351,10.97874 0,20 0,25c0,2 0,6 0,7l0,4l0,0l1,0"/>
  <path d="m18.5,164c2,0 10,0 25,1c15,1 27.06133,3.82462 33,6c5.05659,1.85226 9.87856,5.49345 13,6c1.97417,0.32036 4,0 7,0c1,0 2.31001,-0.66251 5,1c6.01501,3.71748 10.72399,10.22273 14,14c4.63297,5.34187 7,9 9,11l0,2l1,1l1,0" id="svg_9" stroke-linecap="null" stroke-linejoin="null" stroke-dasharray="null" stroke-width="0" stroke="#007f7f" fill="none"/>
  <path d="m27.5,181c1,0 10,0 22,0c12,0 19,0 27,0c5,0 8.69344,-1.4588 10,-2c1.84776,-0.76537 0.19577,2.64886 4,5c1.7013,1.05147 5,0 7,0l2,0l0,0" id="svg_10" stroke-linecap="null" stroke-linejoin="null" stroke-dasharray="null" stroke-width="0" stroke="#007f7f" fill="none"/>
  <path id="svg_11" transform="rotate(-45.566978454589844 75.02972412109374,189.69622802734375) " fill="#00bfbf" fill-rule="evenodd" stroke="#007f7f" d="m38.7168,161.66843l2.4805,-9.99011c33.10499,9.22366 59.62709,36.92108 70.14534,72.70578l-9.27799,3.33006c-9.49263,-32.2961 -33.48659,-57.50923 -63.34784,-66.04573" stroke-width="0"/>
  <path id="svg_12" transform="rotate(139.98687744140625 170.0297088623047,195.69622802734375) " fill="#00bfbf" fill-rule="evenodd" stroke="#007f7f" d="m129.49763,167.3876l2.76871,-10.09018c36.95143,9.31606 66.5551,37.29099 78.29544,73.43419l-10.356,3.36342c-10.59555,-32.61966 -38.02029,-57.31949 -70.70815,-66.70743" stroke-width="0"/>
  <path id="svg_13" transform="rotate(-45.512245178222656 261.02972412109375,198.1962280273437) " fill="#00bfbf" fill-rule="evenodd" stroke="#007f7f" d="m221.33742,168.71724l2.71133,-10.50735c36.18587,9.70122 65.17619,38.83273 76.67329,76.47023l-10.14145,3.50247c-10.37604,-33.96828 -36.60294,-60.48685 -69.24318,-69.46535" stroke-width="0"/>
  <path d="m303.49765,165.3876l2.76868,-10.09018c36.95145,9.31606 66.55511,37.29099 78.29544,73.43419l-10.35599,3.36342c-10.59555,-32.61966 -37.37732,-58.08539 -70.70813,-66.70743" id="svg_14" transform="rotate(136.30035400390625 344.02972412109375,193.69622802734378) " fill="#00bfbf" fill-rule="evenodd" stroke="#007f7f" stroke-width="0"/>
  <path id="svg_15" transform="rotate(-44.885372161865234 75.02972412109374,256.69622802734375) " fill="#00bfbf" fill-rule="evenodd" stroke="#007f7f" d="m38.7168,228.66843l2.48051,-9.99011c33.10499,9.22366 59.62709,36.92108 70.14533,72.70578l-9.27799,3.33008c-9.49263,-32.29611 -33.4866,-57.50925 -63.34784,-66.04575" stroke-width="0"/>
  <path id="svg_16" transform="rotate(-44.885372161865234 71.0297241210936,333.6962280273437) " fill="#00bfbf" fill-rule="evenodd" stroke="#007f7f" d="m34.7168,305.66843l2.48051,-9.99011c33.10499,9.22366 59.62709,36.92108 70.14534,72.70578l-9.278,3.33008c-9.49263,-32.29611 -33.4866,-57.50925 -63.34785,-66.04575" stroke-width="0"/>
  <path id="svg_17" transform="rotate(139.98687744140625 170.02970886230466,263.69622802734375) " fill="#00bfbf" fill-rule="evenodd" stroke="#007f7f" d="m129.49763,235.3876l2.76871,-10.09018c36.95143,9.31606 66.5551,37.29099 78.29544,73.4342l-10.356,3.3634c-10.59555,-32.61966 -38.02029,-57.31949 -70.70815,-66.70743" stroke-width="0"/>
  <path id="svg_18" transform="rotate(139.98687744140625 164.0297088623047,339.6962280273437) " fill="#00bfbf" fill-rule="evenodd" stroke="#007f7f" d="m123.49763,311.3876l2.76871,-10.09018c36.95143,9.31604 66.5551,37.29099 78.29544,73.4342l-10.356,3.3634c-10.59555,-32.61966 -38.02029,-57.31949 -70.70815,-66.70743" stroke-width="0"/>
  <path id="svg_19" transform="rotate(-45.512245178222656 262.0297241210938,266.19622802734375) " fill="#00bfbf" fill-rule="evenodd" stroke="#007f7f" d="m222.33742,236.71724l2.71133,-10.50735c36.18587,9.70122 65.17619,38.83272 76.67329,76.47023l-10.14145,3.50247c-10.37604,-33.96829 -36.60294,-60.48685 -69.24318,-69.46535" stroke-width="0"/>
  <path id="svg_20" transform="rotate(-45.512245178222656 261.02972412109375,339.19622802734375) " fill="#00bfbf" fill-rule="evenodd" stroke="#007f7f" d="m221.33742,309.71722l2.71133,-10.50732c36.18587,9.7012 65.17619,38.8327 76.67329,76.47021l-10.14145,3.50247c-10.37604,-33.96829 -36.60294,-60.48685 -69.24318,-69.46536" stroke-width="0"/>
  <path id="svg_21" d="m304.49765,233.3876l2.76868,-10.09018c36.95145,9.31606 66.55511,37.29099 78.29544,73.4342l-10.35599,3.3634c-10.59555,-32.61966 -37.37732,-58.08539 -70.70813,-66.70743" transform="rotate(135.5986328125 345.0297241210937,261.69622802734375) " fill="#00bfbf" fill-rule="evenodd" stroke="#007f7f" stroke-width="0"/>
  <path id="svg_22" d="m293.49765,303.3876l2.76868,-10.09018c36.95145,9.31604 66.55511,37.29099 78.29544,73.4342l-10.35599,3.3634c-10.59555,-32.61966 -37.37732,-58.08539 -70.70813,-66.70743" transform="rotate(136.18321228027344 334.02972412109375,331.6962280273438) " fill="#00bfbf" fill-rule="evenodd" stroke="#007f7f" stroke-width="0"/>
 </g>
</svg>