<svg width="400" height="400" xmlns="http://www.w3.org/2000/svg">
 <title>Audiogram Hearing Response - no border</title>
 <metadata id="metadata12390">image/svg+xmlOther map symbolsMohamed IbrahimPublic Domainclker.comother map symbols</metadata>
 <g>
  <path fill="#00bfbf" fill-rule="nonzero" stroke="#00bfbf" id="path3290" d="m192.89087,47.24217l10.53918,0c59.11371,0.11777 93.02753,56.40528 93.263,94.49942c-0.23547,7.41864 -2.06073,13.83636 -10.42145,13.65974c-17.72229,0.17662 -11.42236,-28.3793 -26.02411,-52.57819c-6.88873,-11.9523 -29.08583,-33.56056 -54.40341,-33.38394l-9.30276,0c-13.54196,-0.17663 -39.09506,7.65418 -56.22864,33.38394c-21.37274,31.08765 -7.35974,53.87348 -25.31757,53.75571c-2.7084,0.11777 -10.65695,-0.70651 -10.53918,-13.54196c0.76538,-58.466 54.40338,-95.67696 88.43492,-95.79473"/>
  <path fill="#00bfbf" fill-rule="nonzero" stroke="#00bfbf" id="path3292" d="m200.89832,367.54211c22.19708,0.23547 39.33063,-22.25598 39.5661,-37.74091l0,-32.14746c-0.23547,-65.82582 68.88745,-91.73218 68.65192,-157.61684c0.23553,-61.70428 -55.52209,-108.33578 -108.21802,-108.21804c-43.68756,-0.11775 -73.47994,28.02599 -84.72565,42.62779c-33.79605,41.80347 -14.36627,81.66396 -38.27081,81.66396c-6.82983,0 -13.48306,-3.82712 -13.60083,-17.36905c-1.05981,-65.35473 52.93146,-134.65432 137.8926,-134.77207c68.53415,0.11777 135.89078,54.75669 135.89078,138.54029c0,77.60138 -67.94537,93.79288 -67.94537,161.97379l0,29.08582c0,29.9101 -26.67181,64.11829 -70.47714,64.29492c-1.58975,-0.47101 -3.47382,-1.05981 -5.53458,-1.29529c-8.06628,-2.414 -13.6597,-10.83362 -11.71677,-19.13544c2.29626,-7.18314 8.94949,-8.94946 17.95786,-9.89148l0.52991,0z"/>
  <path fill="#00bfbf" fill-rule="nonzero" stroke="#007f7f" id="path3298" d="m72.00308,253.57608c0.11777,-7.77188 6.24106,-13.95413 13.89523,-13.8952c7.47755,-0.05893 13.60084,6.12332 13.9541,13.8952c-0.35326,7.24207 -6.47655,13.42422 -13.9541,13.12982c-7.65417,0.2944 -13.77747,-5.88776 -13.89523,-13.12982"/>
  <path transform="rotate(39.437374114990234 183.0296936035156,251.69622802734375) " fill="#00bfbf" fill-rule="evenodd" stroke="#007f7f" id="path3306" d="m122.8877,204.73769l4.10825,-16.73769c54.82897,15.45358 98.75529,61.8586 116.17576,121.8132l-15.36633,5.57925c-15.72183,-54.10971 -55.46101,-96.35246 -104.91766,-110.6548"/>
  <title>Layer 1</title>
  <path id="svg_1" transform="rotate(41.464134216308594 161.5297241210937,252.19622802734378) " fill="#00bfbf" fill-rule="evenodd" stroke="#007f7f" d="m115.79248,219.88983l3.12427,-11.51515c41.69676,10.63171 75.10217,42.5573 88.35022,83.8047l-11.68591,3.83841c-11.95627,-37.22626 -42.1774,-66.2883 -79.78857,-76.12796"/>
  <path id="svg_2" transform="rotate(42.143253326416016 138.52969360351557,250.19622802734375) " fill="#00bfbf" fill-rule="evenodd" stroke="#007f7f" d="m104.99899,227.67026l2.29044,-8.02905c30.56857,7.4131 55.05862,29.67349 64.77098,58.43369l-8.56712,2.67639c-8.76535,-25.95641 -30.92093,-46.22018 -58.49429,-53.08101"/>
  <path id="svg_3" transform="rotate(37.61712646484375 114.07366943359365,251.2406921386719) " fill="#00bfbf" fill-rule="evenodd" stroke="#007f7f" d="m93.05066,235.10828l1.4361,-5.75023c19.16574,5.30907 34.52044,21.2513 40.60989,41.84862l-5.3714,1.91669c-5.49564,-18.58922 -19.38675,-33.10158 -36.67459,-38.01508"/>
  <path fill="#00bfbf" fill-rule="nonzero" stroke="#007f7f" d="m99.00308,214.46428c0.09241,-5.47214 4.89645,-9.82501 10.90158,-9.78352c5.86655,-0.04149 10.67059,4.3114 10.94775,9.78352c-0.27716,5.09909 -5.08121,9.4519 -10.94775,9.24461c-6.00513,0.20729 -10.80917,-4.14552 -10.90158,-9.24461" id="svg_4"/>
  <path fill="#00bfbf" fill-rule="nonzero" stroke="#007f7f" d="m116.00308,256.43631c0.07971,-4.89719 4.22415,-8.79272 9.40475,-8.75558c5.06104,-0.03714 9.20547,3.8584 9.44459,8.75558c-0.23912,4.56335 -4.38354,8.45883 -9.44459,8.27332c-5.1806,0.18552 -9.32504,-3.70996 -9.40475,-8.27332" id="svg_5"/>
  <path fill="#00bfbf" fill-rule="nonzero" stroke="#007f7f" d="m116.00308,285.46426c0.08817,-5.47214 4.67236,-9.82501 10.40262,-9.78351c5.59805,-0.0415 10.18225,4.31137 10.44672,9.78351c-0.26447,5.09909 -4.84866,9.4519 -10.44672,9.24463c-5.73026,0.20728 -10.31445,-4.14554 -10.40262,-9.24463" id="svg_6"/>
  <path fill="#00bfbf" fill-rule="nonzero" stroke="#007f7f" d="m144.00308,237.92233c0.07547,-4.60971 4.00006,-8.27658 8.90579,-8.24164c4.79253,-0.03494 8.71713,3.63193 8.94354,8.24164c-0.22641,4.29547 -4.15102,7.96228 -8.94354,7.78769c-4.90573,0.17459 -8.83032,-3.49222 -8.90579,-7.78769" id="svg_7"/>
  <path fill="#00bfbf" fill-rule="nonzero" stroke="#007f7f" d="m171.00308,199.3804c0.05011,-3.74731 2.65546,-6.72815 5.91214,-6.69974c3.18155,-0.02841 5.7869,2.95242 5.93719,6.69974c-0.1503,3.49188 -2.75565,6.47269 -5.93719,6.33072c-3.25668,0.14197 -5.86203,-2.83884 -5.91214,-6.33072" id="svg_9"/>
  <path fill="#00bfbf" fill-rule="nonzero" stroke="#007f7f" d="m166.00308,259.3804c0.05011,-3.74731 2.65546,-6.72815 5.91214,-6.69974c3.18155,-0.02841 5.7869,2.95242 5.93719,6.69974c-0.1503,3.49188 -2.75565,6.47269 -5.93719,6.33072c-3.25668,0.14197 -5.86203,-2.83884 -5.91214,-6.33072" id="svg_10"/>
  <path fill="#00bfbf" fill-rule="nonzero" stroke="#007f7f" d="m203.00308,279.3804c0.05011,-3.74731 2.65546,-6.72815 5.91214,-6.69974c3.18155,-0.02841 5.7869,2.95242 5.93719,6.69974c-0.15031,3.49188 -2.75566,6.47269 -5.93719,6.33072c-3.25668,0.14197 -5.86203,-2.83884 -5.91214,-6.33072" id="svg_11"/>
  <path fill="#00bfbf" fill-rule="nonzero" stroke="#007f7f" d="m182.00305,262.3804c0.05017,-3.74731 2.65552,-6.72815 5.91217,-6.69974c3.18152,-0.02841 5.78687,2.95242 5.93719,6.69974c-0.15033,3.49188 -2.75569,6.47269 -5.93719,6.33072c-3.25665,0.14197 -5.862,-2.83884 -5.91217,-6.33072" id="svg_12"/>
  <path fill="#00bfbf" fill-rule="nonzero" stroke="#00bfbf" d="m251.00305,279.3804c0.05017,-3.74731 2.65552,-6.72815 5.91217,-6.69974c3.18152,-0.02841 5.78687,2.95242 5.93719,6.69974c-0.15033,3.49188 -2.75571,6.47269 -5.93719,6.33072c-3.25665,0.14197 -5.862,-2.83884 -5.91217,-6.33072" id="svg_13"/>
  <path fill="#00bfbf" fill-rule="nonzero" stroke="#007f7f" d="m167.00305,340.3804c0.05017,-3.74731 2.65552,-6.72815 5.91217,-6.69974c3.18152,-0.02841 5.78687,2.95242 5.93719,6.69974c-0.15034,3.49188 -2.75568,6.47269 -5.93719,6.33072c-3.25665,0.14197 -5.862,-2.83884 -5.91217,-6.33072" id="svg_14"/>
  <path fill="#00bfbf" fill-rule="nonzero" stroke="#007f7f" d="m134.00305,200.3804c0.05017,-3.74731 2.65552,-6.72815 5.91217,-6.69974c3.18152,-0.02841 5.78687,2.95242 5.93719,6.69974c-0.15034,3.49188 -2.75568,6.47269 -5.93719,6.33072c-3.25665,0.14197 -5.862,-2.83884 -5.91217,-6.33072" id="svg_15"/>
  <path fill="#00bfbf" fill-rule="nonzero" stroke="#007f7f" d="m149.00308,286.43631c0.0797,-4.89719 4.22414,-8.79272 9.40475,-8.75558c5.06104,-0.03714 9.20546,3.8584 9.44458,8.75558c-0.23912,4.56335 -4.38354,8.45883 -9.44458,8.27332c-5.18062,0.18552 -9.32506,-3.70996 -9.40475,-8.27332" id="svg_16"/>
  <path fill="#00bfbf" fill-rule="nonzero" stroke="#007f7f" d="m148.00308,216.43631c0.0797,-4.89719 4.22414,-8.79272 9.40475,-8.75558c5.06104,-0.03714 9.20546,3.8584 9.44458,8.75558c-0.23912,4.56335 -4.38354,8.45883 -9.44458,8.27332c-5.18062,0.18553 -9.32506,-3.70996 -9.40475,-8.27332" id="svg_17"/>
  <path fill="#00bfbf" fill-rule="nonzero" stroke="#007f7f" d="m131.00308,319.43631c0.0797,-4.89719 4.22414,-8.79272 9.40475,-8.75558c5.06104,-0.03714 9.20546,3.8584 9.44458,8.75558c-0.23912,4.56335 -4.38354,8.45883 -9.44458,8.27332c-5.18062,0.18552 -9.32506,-3.70996 -9.40475,-8.27332" id="svg_18"/>
  <path fill="#00bfbf" fill-rule="nonzero" stroke="#007f7f" d="m202.00305,253.3804c0.05017,-3.74731 2.65552,-6.72815 5.91217,-6.69974c3.18152,-0.02841 5.78687,2.95242 5.93719,6.69974c-0.15033,3.49188 -2.75569,6.47269 -5.93719,6.33072c-3.25665,0.14197 -5.862,-2.83884 -5.91217,-6.33072" id="svg_19"/>
  <path fill="#00bfbf" fill-rule="nonzero" stroke="#007f7f" d="m222.00305,273.3804c0.05017,-3.74731 2.65552,-6.72815 5.91217,-6.69974c3.18152,-0.02841 5.78687,2.95242 5.93719,6.69974c-0.15033,3.49188 -2.75569,6.47269 -5.93719,6.33072c-3.25665,0.14197 -5.862,-2.83884 -5.91217,-6.33072" id="svg_20"/>
  <path fill="#00bfbf" fill-rule="nonzero" stroke="#00bfbf" d="m242.00305,293.3804c0.05017,-3.74731 2.65552,-6.72815 5.91217,-6.69974c3.18152,-0.02841 5.78687,2.95242 5.93719,6.69974c-0.15033,3.49188 -2.75569,6.47269 -5.93719,6.33072c-3.25665,0.14197 -5.862,-2.83884 -5.91217,-6.33072" id="svg_21"/>
  <path fill="#00bfbf" fill-rule="nonzero" stroke="#007f7f" d="m146.00305,162.3804c0.05017,-3.74731 2.65552,-6.72815 5.91217,-6.69974c3.18152,-0.02841 5.78687,2.95242 5.93719,6.69974c-0.15034,3.49188 -2.75568,6.47269 -5.93719,6.33072c-3.25665,0.14197 -5.862,-2.83884 -5.91217,-6.33072" id="svg_22"/>
  <path fill="#00bfbf" fill-rule="nonzero" stroke="#007f7f" d="m212.00305,317.3804c0.05017,-3.74731 2.65552,-6.72815 5.91217,-6.69974c3.18152,-0.02841 5.78687,2.95242 5.93719,6.69974c-0.15033,3.49188 -2.75569,6.47269 -5.93719,6.33072c-3.25665,0.14197 -5.862,-2.83884 -5.91217,-6.33072" id="svg_23"/>
  <path fill="#00bfbf" fill-rule="nonzero" stroke="#007f7f" d="m150.00305,184.3804c0.05017,-3.74731 2.65552,-6.72815 5.91217,-6.69974c3.18152,-0.02841 5.78687,2.95242 5.93719,6.69974c-0.15034,3.49188 -2.75568,6.47269 -5.93719,6.33072c-3.25665,0.14197 -5.862,-2.83884 -5.91217,-6.33072" id="svg_24"/>
  <path fill="#00bfbf" fill-rule="nonzero" stroke="#007f7f" d="m228.00305,221.3804c0.05017,-3.74731 2.65552,-6.72815 5.91217,-6.69974c3.18152,-0.02841 5.78687,2.95242 5.93719,6.69974c-0.15033,3.49188 -2.75569,6.47269 -5.93719,6.33072c-3.25665,0.14197 -5.862,-2.83884 -5.91217,-6.33072" id="svg_25"/>
  <path fill="#00bfbf" fill-rule="nonzero" stroke="#007f7f" d="m107.00308,183.46426c0.08817,-5.47214 4.67236,-9.82501 10.40262,-9.78351c5.59805,-0.0415 10.18225,4.31137 10.44672,9.78351c-0.26447,5.09909 -4.84866,9.45189 -10.44672,9.24463c-5.73026,0.20728 -10.31445,-4.14554 -10.40262,-9.24463" id="svg_26"/>
  <path fill="#00bfbf" fill-rule="nonzero" stroke="#007f7f" d="m197.00308,211.46426c0.08817,-5.47214 4.67236,-9.82501 10.40262,-9.78351c5.59805,-0.0415 10.18225,4.31137 10.44672,9.78351c-0.26447,5.09909 -4.84866,9.45189 -10.44672,9.24463c-5.73026,0.20728 -10.31445,-4.14554 -10.40262,-9.24463" id="svg_27"/>
  <path fill="#00bfbf" fill-rule="nonzero" stroke="#007f7f" d="m176.00308,235.46426c0.08817,-5.47214 4.67235,-9.82501 10.40262,-9.78351c5.59805,-0.0415 10.18225,4.31137 10.44672,9.78351c-0.26447,5.09909 -4.84866,9.45189 -10.44672,9.24463c-5.73027,0.20728 -10.31445,-4.14554 -10.40262,-9.24463" id="svg_28"/>
  <path id="svg_31" fill="#00bfbf" fill-rule="nonzero" stroke="#007f7f" d="m186.00308,279.3804c0.05011,-3.74731 2.65546,-6.72815 5.91214,-6.69974c3.18155,-0.02841 5.7869,2.95242 5.93719,6.69974c-0.15031,3.49188 -2.75566,6.47269 -5.93719,6.33072c-3.25668,0.14197 -5.86203,-2.83884 -5.91214,-6.33072"/>
  <path id="svg_32" fill="#00bfbf" fill-rule="nonzero" stroke="#007f7f" d="m206.00308,299.3804c0.05011,-3.74731 2.65546,-6.72815 5.91214,-6.69974c3.18155,-0.02841 5.7869,2.95242 5.93719,6.69974c-0.15031,3.49188 -2.75566,6.47269 -5.93719,6.33072c-3.25668,0.14197 -5.86203,-2.83884 -5.91214,-6.33072"/>
  <path id="svg_33" fill="#00bfbf" fill-rule="nonzero" stroke="#007f7f" d="m226.00308,319.3804c0.05011,-3.74731 2.65549,-6.72815 5.91214,-6.69974c3.18152,-0.02841 5.78687,2.95242 5.93719,6.69974c-0.15033,3.49188 -2.75569,6.47269 -5.93719,6.33072c-3.25665,0.14197 -5.86203,-2.83884 -5.91214,-6.33072"/>
  <path id="svg_34" fill="#00bfbf" fill-rule="nonzero" stroke="#007f7f" d="m235.00305,174.3804c0.05017,-3.74731 2.65552,-6.72815 5.91217,-6.69974c3.18152,-0.02841 5.78687,2.95242 5.93719,6.69974c-0.15033,3.49188 -2.75569,6.47269 -5.93719,6.33072c-3.25665,0.14197 -5.862,-2.83884 -5.91217,-6.33072"/>
  <path id="svg_35" fill="#00bfbf" fill-rule="nonzero" stroke="#007f7f" d="m130.00305,242.3804c0.05017,-3.74731 2.65552,-6.72815 5.91217,-6.69974c3.18152,-0.02841 5.78687,2.95242 5.93719,6.69974c-0.15034,3.49188 -2.75568,6.47269 -5.93719,6.33072c-3.25665,0.14197 -5.862,-2.83884 -5.91217,-6.33072"/>
  <path id="svg_36" fill="#00bfbf" fill-rule="nonzero" stroke="#007f7f" d="m175.00305,146.3804c0.05017,-3.74731 2.65552,-6.72815 5.91217,-6.69974c3.18152,-0.02841 5.78687,2.95242 5.93719,6.69974c-0.15034,3.49188 -2.75568,6.47269 -5.93719,6.33072c-3.25665,0.14197 -5.862,-2.83884 -5.91217,-6.33072"/>
  <path id="svg_37" fill="#00bfbf" fill-rule="nonzero" stroke="#007f7f" d="m247.00305,233.3804c0.05017,-3.74731 2.65552,-6.72815 5.91217,-6.69974c3.18152,-0.02841 5.78687,2.95242 5.93719,6.69974c-0.15033,3.49188 -2.75571,6.47269 -5.93719,6.33072c-3.25665,0.14197 -5.862,-2.83884 -5.91217,-6.33072"/>
  <path id="svg_38" fill="#00bfbf" fill-rule="nonzero" stroke="#007f7f" d="m261.00305,193.3804c0.05017,-3.74731 2.65552,-6.72815 5.91217,-6.69974c3.18152,-0.02841 5.78687,2.95242 5.93719,6.69974c-0.15033,3.49188 -2.75571,6.47269 -5.93719,6.33072c-3.25665,0.14197 -5.862,-2.83884 -5.91217,-6.33072"/>
  <path id="svg_39" fill="#00bfbf" fill-rule="nonzero" stroke="#007f7f" d="m178.00305,110.3804c0.05017,-3.74731 2.65552,-6.72815 5.91217,-6.69975c3.18152,-0.0284 5.78687,2.95243 5.93719,6.69975c-0.15034,3.49187 -2.75568,6.47269 -5.93719,6.33072c-3.25665,0.14197 -5.862,-2.83884 -5.91217,-6.33072"/>
  <path id="svg_40" fill="#00bfbf" fill-rule="nonzero" stroke="#007f7f" d="m166.00305,182.3804c0.05017,-3.74731 2.65552,-6.72815 5.91217,-6.69974c3.18152,-0.02841 5.78687,2.95242 5.93719,6.69974c-0.15034,3.49188 -2.75568,6.47269 -5.93719,6.33072c-3.25665,0.14197 -5.862,-2.83884 -5.91217,-6.33072"/>
  <path id="svg_41" fill="#00bfbf" fill-rule="nonzero" stroke="#007f7f" d="m186.00305,202.3804c0.05017,-3.74731 2.65552,-6.72815 5.91217,-6.69974c3.18152,-0.02841 5.78687,2.95242 5.93719,6.69974c-0.15033,3.49188 -2.75569,6.47269 -5.93719,6.33072c-3.25665,0.14197 -5.862,-2.83884 -5.91217,-6.33072"/>
  <path id="svg_42" fill="#00bfbf" fill-rule="nonzero" stroke="#007f7f" d="m206.00305,222.3804c0.05017,-3.74731 2.65552,-6.72815 5.91217,-6.69974c3.18152,-0.02841 5.78687,2.95242 5.93719,6.69974c-0.15033,3.49188 -2.75569,6.47269 -5.93719,6.33072c-3.25665,0.14197 -5.862,-2.83884 -5.91217,-6.33072"/>
  <path id="svg_43" fill="#00bfbf" fill-rule="nonzero" stroke="#007f7f" d="m226.00305,242.3804c0.05017,-3.74731 2.65552,-6.72815 5.91217,-6.69974c3.18152,-0.02841 5.78687,2.95242 5.93719,6.69974c-0.15033,3.49188 -2.75569,6.47269 -5.93719,6.33072c-3.25665,0.14197 -5.862,-2.83884 -5.91217,-6.33072"/>
  <path id="svg_44" fill="#00bfbf" fill-rule="nonzero" stroke="#007f7f" d="m89.00305,189.3804c0.05017,-3.74731 2.65552,-6.72815 5.91217,-6.69974c3.18152,-0.02841 5.78687,2.95242 5.93719,6.69974c-0.15033,3.49188 -2.75568,6.47269 -5.93719,6.33072c-3.25665,0.14197 -5.862,-2.83884 -5.91217,-6.33072"/>
  <path id="svg_45" fill="#00bfbf" fill-rule="nonzero" stroke="#007f7f" d="m132.00305,178.3804c0.05017,-3.74731 2.65552,-6.72815 5.91217,-6.69974c3.18152,-0.02841 5.78687,2.95242 5.93719,6.69974c-0.15034,3.49188 -2.75568,6.47269 -5.93719,6.33072c-3.25665,0.14197 -5.862,-2.83884 -5.91217,-6.33072"/>
  <path id="svg_46" fill="#00bfbf" fill-rule="nonzero" stroke="#007f7f" d="m199.00305,169.3804c0.05017,-3.74731 2.65552,-6.72815 5.91217,-6.69974c3.18152,-0.02841 5.78687,2.95242 5.93719,6.69974c-0.15033,3.49188 -2.75569,6.47269 -5.93719,6.33072c-3.25665,0.14197 -5.862,-2.83884 -5.91217,-6.33072"/>
  <path id="svg_47" fill="#00bfbf" fill-rule="nonzero" stroke="#007f7f" d="m166.00305,171.3804c0.05017,-3.74731 2.65552,-6.72815 5.91217,-6.69974c3.18152,-0.02841 5.78687,2.95242 5.93719,6.69974c-0.15034,3.49188 -2.75568,6.47269 -5.93719,6.33072c-3.25665,0.14197 -5.862,-2.83884 -5.91217,-6.33072"/>
  <path id="svg_48" fill="#00bfbf" fill-rule="nonzero" stroke="#007f7f" d="m127.00308,203.46426c0.08817,-5.47214 4.67235,-9.82501 10.40262,-9.78351c5.59805,-0.0415 10.18225,4.31137 10.44672,9.78351c-0.26447,5.09909 -4.84866,9.45189 -10.44672,9.24463c-5.73027,0.20728 -10.31445,-4.14554 -10.40262,-9.24463"/>
  <path id="svg_49" fill="#00bfbf" fill-rule="nonzero" stroke="#007f7f" d="m141.00308,146.46426c0.08817,-5.47214 4.67235,-9.82501 10.40262,-9.78351c5.59805,-0.0415 10.18225,4.31137 10.44672,9.78351c-0.26447,5.09909 -4.84866,9.45189 -10.44672,9.24463c-5.73027,0.20728 -10.31445,-4.14554 -10.40262,-9.24463"/>
  <path id="svg_50" fill="#00bfbf" fill-rule="nonzero" stroke="#007f7f" d="m228.00305,189.46426c0.0882,-5.47214 4.67236,-9.82501 10.40265,-9.78351c5.59808,-0.0415 10.18225,4.31137 10.44672,9.78351c-0.26447,5.09909 -4.84863,9.45189 -10.44672,9.24463c-5.73029,0.20728 -10.31445,-4.14554 -10.40265,-9.24463"/>
  <path id="svg_51" fill="#00bfbf" fill-rule="nonzero" stroke="#007f7f" d="m196.00308,139.46426c0.08817,-5.47214 4.67236,-9.82501 10.40262,-9.78352c5.59805,-0.04149 10.18225,4.31139 10.44672,9.78352c-0.26447,5.09909 -4.84866,9.45189 -10.44672,9.24463c-5.73026,0.20728 -10.31445,-4.14554 -10.40262,-9.24463"/>
  <path id="svg_52" fill="#00bfbf" fill-rule="nonzero" stroke="#007f7f" d="m227.00308,151.46426c0.08817,-5.47214 4.67233,-9.82501 10.40262,-9.78351c5.59808,-0.0415 10.18225,4.31137 10.44672,9.78351c-0.26447,5.09909 -4.84863,9.45189 -10.44672,9.24463c-5.73029,0.20728 -10.31445,-4.14554 -10.40262,-9.24463"/>
 </g>
</svg>